# xmcd
#
# Track frame offsets: 
#        300
#        24821
#        51737
#        82386
#        109833
#        140349
#        163407
#        184190
#        221650
#        248298
#        278183
#
# Disc length: 3995 seconds
#
# Revision: 0
# Processed by: cddbd v1.5.2PL0 Copyright (c) Steve Scherf et al.
# Submitted via: ExactAudioCopy v1.0b1
#
DISCID=a40f970b
DTITLE=Byther Smith - Blues on the Moon
DYEAR=2009
DGENRE=General Blues
TTITLE0=Judge Of Honor
TTITLE1=If You Love Me
TTITLE2=Blues On The Moon
TTITLE3=Give Up My Life For You
TTITLE4=Hard Times
TTITLE5=Your Mama's Crazy
TTITLE6=If I Miused Someone
TTITLE7=Monticello
TTITLE8=So Mean To Me
TTITLE9=Rock Me Baby
TTITLE10=Don't Start Me Talkin'
EXTD=
EXTT0=
EXTT1=
EXTT2=
EXTT3=
EXTT4=
EXTT5=
EXTT6=
EXTT7=
EXTT8=
EXTT9=
EXTT10=
PLAYORDER=
